<svg width="256" height="256" viewBox="0 0 256 256" fill="none" xmlns="http://www.w3.org/2000/svg">
<rect width="256" height="256" rx="10" fill="#770334"/>
<path d="M71.1891 185.328C56.0408 189.788 31.3925 186.547 16.5763 183.875C10.2048 182.726 4.14175 187.56 4.14175 194.034L4.14175 242.326C4.14175 247.849 8.6189 252.326 14.1417 252.326L243.597 252.326C249.137 252.326 253.622 247.822 253.597 242.281L253.144 141.233C253.142 140.962 253.153 140.701 253.149 140.43C253.109 137.661 251.378 121.328 216.142 121.328C177.642 121.327 93.97 178.621 71.1891 185.328Z" fill="#FC0152"/>
<path d="M105.832 101.952C105.832 101.952 105.832 102.549 105.832 103.744C105.832 104.939 105.832 106.432 105.832 108.224C105.832 109.931 105.832 111.68 105.832 113.472C105.832 115.179 105.832 116.629 105.832 117.824C105.832 119.019 105.832 119.616 105.832 119.616H60.008C56.5947 119.616 53.5653 119.957 50.92 120.64C48.36 121.237 46.056 122.517 44.008 124.48C42.0453 126.443 40.2533 129.387 38.632 133.312L36.456 132.8C37.9067 126.315 39.8693 120.811 42.344 116.288C44.8187 111.68 48.1467 108.139 52.328 105.664C56.5947 103.189 62.1413 101.952 68.968 101.952H105.832ZM67.944 117.056C67.2613 126.016 66.3227 133.568 65.128 139.712C64.0187 145.771 62.8667 150.72 61.672 154.56C60.4773 158.315 59.2827 161.301 58.088 163.52C57.2347 165.141 55.8693 166.592 53.992 167.872C52.2 169.152 49.8107 169.792 46.824 169.792C44.6053 169.792 42.8133 169.195 41.448 168C40.0827 166.805 39.4 165.227 39.4 163.264C39.4 160.533 40.296 158.315 42.088 156.608C43.88 154.901 46.2267 153.152 49.128 151.36C51.6027 149.824 53.736 148.245 55.528 146.624C57.4053 145.003 59.0267 142.997 60.392 140.608C61.7573 138.133 62.8667 135.019 63.72 131.264C64.6587 127.509 65.384 122.773 65.896 117.056H67.944ZM83.56 111.808L79.592 139.584C79.2507 143.083 79.6773 145.557 80.872 147.008C82.0667 148.459 83.7307 149.184 85.864 149.184C89.2773 149.184 92.136 148.16 94.44 146.112C96.8293 143.979 98.8347 140.437 100.456 135.488L102.888 136C102.547 138.048 102.035 140.48 101.352 143.296C100.755 146.112 99.944 149.056 98.92 152.128C97.896 155.2 96.6587 158.101 95.208 160.832C93.7573 163.477 92.0933 165.653 90.216 167.36C88.3387 168.981 86.1627 169.792 83.688 169.792C81.0427 169.792 78.9947 168.981 77.544 167.36C76.1787 165.653 75.368 163.051 75.112 159.552C74.856 155.968 75.1547 151.36 76.008 145.728L81.128 111.808H83.56Z" fill="white"/>
<path d="M116.328 123.224C116.413 121.389 117.075 119.981 118.312 119C119.592 118.019 121.107 117.528 122.856 117.528C124.435 117.528 125.629 117.912 126.44 118.68C127.293 119.405 127.677 120.429 127.592 121.752C127.507 123.416 126.824 124.781 125.544 125.848C124.264 126.872 122.728 127.384 120.936 127.384C119.443 127.384 118.269 127.021 117.416 126.296C116.605 125.528 116.243 124.504 116.328 123.224ZM113.896 139.352C114.621 137.219 114.387 136.152 113.192 136.152C112.424 136.152 111.72 136.536 111.08 137.304C110.44 138.072 109.779 139.373 109.096 141.208L107.816 144.472H106.6L108.392 139.608C108.989 137.901 109.736 136.579 110.632 135.64C111.571 134.701 112.595 134.04 113.704 133.656C114.856 133.229 116.051 133.016 117.288 133.016C118.781 133.016 119.955 133.293 120.808 133.848C121.661 134.403 122.237 135.128 122.536 136.024C122.835 136.877 122.941 137.837 122.856 138.904C122.771 139.928 122.557 140.952 122.216 141.976L115.496 161.56C115.112 162.712 115.005 163.544 115.176 164.056C115.389 164.525 115.795 164.76 116.392 164.76C116.947 164.76 117.544 164.44 118.184 163.8C118.867 163.16 119.613 161.795 120.424 159.704L121.576 156.632H122.792L121.128 161.304C120.531 163.053 119.763 164.397 118.824 165.336C117.885 166.275 116.861 166.936 115.752 167.32C114.685 167.704 113.597 167.896 112.488 167.896C110.653 167.896 109.245 167.491 108.264 166.68C107.325 165.869 106.813 164.696 106.728 163.16C106.643 161.624 106.941 159.811 107.624 157.72L113.896 139.352ZM135.673 167H126.649L134.393 139.352C134.606 138.755 134.734 138.221 134.777 137.752C134.862 137.24 134.82 136.856 134.649 136.6C134.478 136.301 134.158 136.152 133.689 136.152C132.921 136.152 132.217 136.515 131.577 137.24C130.98 137.923 130.318 139.245 129.593 141.208L128.377 144.472H127.161L128.889 139.608C129.742 137.176 130.852 135.469 132.217 134.488C133.625 133.507 135.268 133.016 137.145 133.016C138.681 133.016 139.854 133.293 140.665 133.848C141.476 134.36 142.009 135.064 142.265 135.96C142.564 136.856 142.67 137.837 142.585 138.904C142.542 139.928 142.393 140.952 142.137 141.976L135.673 167ZM137.721 156.184C139.385 151.533 140.921 147.715 142.329 144.728C143.78 141.699 145.188 139.331 146.553 137.624C147.961 135.917 149.39 134.723 150.841 134.04C152.292 133.357 153.849 133.016 155.513 133.016C157.561 133.016 159.033 133.464 159.929 134.36C160.825 135.256 161.273 136.451 161.273 137.944C161.273 139.395 160.996 140.973 160.441 142.68L154.169 161.56C153.742 162.755 153.636 163.587 153.849 164.056C154.062 164.525 154.446 164.76 155.001 164.76C155.556 164.76 156.174 164.461 156.857 163.864C157.54 163.224 158.265 161.837 159.033 159.704L160.185 156.632H161.401L159.801 161.304C159.204 163.096 158.414 164.461 157.433 165.4C156.494 166.339 155.47 166.979 154.361 167.32C153.294 167.704 152.249 167.896 151.225 167.896C149.988 167.896 148.942 167.704 148.089 167.32C147.236 166.979 146.574 166.467 146.105 165.784C145.55 164.931 145.273 163.864 145.273 162.584C145.316 161.261 145.657 159.64 146.297 157.72L152.057 140.44C152.313 139.757 152.484 139.096 152.569 138.456C152.654 137.816 152.633 137.283 152.505 136.856C152.377 136.429 152.014 136.216 151.417 136.216C150.606 136.216 149.689 136.749 148.665 137.816C147.641 138.84 146.553 140.291 145.401 142.168C144.292 144.003 143.182 146.157 142.073 148.632C140.964 151.107 139.897 153.752 138.873 156.568C137.849 159.341 136.932 162.2 136.121 165.144L137.721 156.184Z" fill="white"/>
<path d="M203.984 112.088C205.52 112.088 206.715 112.557 207.568 113.496C208.464 114.392 208.912 115.416 208.912 116.568C208.912 117.933 208.507 119.128 207.696 120.152C206.928 121.176 205.861 122.008 204.496 122.648C203.216 123.245 201.68 123.715 199.888 124.056C198.096 124.355 196.069 124.504 193.808 124.504C192.229 124.504 190.523 124.44 188.688 124.312C186.896 124.141 185.04 123.949 183.12 123.736C181.243 123.523 179.387 123.352 177.552 123.224C175.76 123.053 174.075 122.968 172.496 122.968C171.045 122.968 169.659 123.053 168.336 123.224C167.013 123.352 165.989 123.629 165.264 124.056C166.373 124.355 167.291 124.973 168.016 125.912C168.741 126.851 169.104 127.96 169.104 129.24C169.104 130.691 168.635 131.949 167.696 133.016C166.8 134.083 165.605 134.616 164.112 134.616C162.619 134.616 161.467 134.125 160.656 133.144C159.888 132.12 159.504 130.925 159.504 129.56C159.504 128.536 159.781 127.448 160.336 126.296C160.933 125.101 162.043 124.12 163.664 123.352C164.688 122.84 165.755 122.477 166.864 122.264C167.973 122.051 169.019 121.923 170 121.88C170.981 121.837 171.728 121.816 172.24 121.816C174.885 121.816 177.467 121.944 179.984 122.2C182.501 122.413 184.955 122.648 187.344 122.904C189.776 123.117 192.123 123.224 194.384 123.224C196.048 123.224 197.435 123.139 198.544 122.968C199.696 122.797 200.741 122.541 201.68 122.2L201.552 122.712C200.912 122.2 200.315 121.475 199.76 120.536C199.205 119.597 198.928 118.531 198.928 117.336C198.928 115.8 199.376 114.541 200.272 113.56C201.211 112.579 202.448 112.088 203.984 112.088ZM180.304 122.904C180.304 122.904 180.624 122.947 181.264 123.032C181.947 123.075 182.779 123.139 183.76 123.224C184.741 123.309 185.723 123.395 186.704 123.48C187.685 123.565 188.517 123.651 189.2 123.736C189.883 123.779 190.224 123.8 190.224 123.8L180.688 159.576C180.304 161.112 180.155 162.328 180.24 163.224C180.368 164.077 180.837 164.696 181.648 165.08C182.501 165.421 183.781 165.635 185.488 165.72L185.232 167C183.909 166.915 182.181 166.872 180.048 166.872C177.915 166.829 175.696 166.808 173.392 166.808C171.173 166.808 169.04 166.829 166.992 166.872C164.987 166.872 163.365 166.915 162.128 167L162.384 165.72C164.176 165.635 165.584 165.421 166.608 165.08C167.675 164.696 168.485 164.077 169.04 163.224C169.637 162.328 170.128 161.112 170.512 159.576L180.304 122.904ZM211.809 134.296C210.828 134.296 209.782 134.893 208.673 136.088C207.606 137.24 206.54 138.797 205.473 140.76C204.449 142.723 203.51 144.92 202.657 147.352C201.846 149.784 201.185 152.301 200.673 154.904C200.204 157.464 199.969 159.917 199.969 162.264C199.969 163.8 200.14 164.909 200.481 165.592C200.865 166.275 201.42 166.616 202.145 166.616C203.126 166.616 204.15 166.061 205.217 164.952C206.284 163.8 207.329 162.264 208.353 160.344C209.377 158.424 210.294 156.269 211.105 153.88C211.958 151.448 212.641 148.931 213.153 146.328C213.665 143.725 213.921 141.208 213.921 138.776C213.921 136.984 213.729 135.789 213.345 135.192C213.004 134.595 212.492 134.296 211.809 134.296ZM191.393 157.336C191.393 155.373 191.649 153.283 192.161 151.064C192.716 148.845 193.548 146.669 194.657 144.536C195.766 142.403 197.132 140.483 198.753 138.776C200.417 137.027 202.358 135.64 204.577 134.616C206.838 133.549 209.356 133.016 212.129 133.016C215.414 133.016 217.953 133.912 219.745 135.704C221.58 137.496 222.497 140.12 222.497 143.576C222.497 145.539 222.22 147.629 221.665 149.848C221.153 152.067 220.342 154.243 219.233 156.376C218.124 158.509 216.737 160.451 215.073 162.2C213.452 163.907 211.51 165.293 209.249 166.36C207.03 167.384 204.534 167.896 201.761 167.896C198.476 167.896 195.916 167 194.081 165.208C192.289 163.416 191.393 160.792 191.393 157.336Z" fill="white"/>
<path d="M218.224 52.9003L224.404 45.0871L233.441 56.4L203.134 56.4L211.605 47.9293L216.738 52.992L217.532 53.7755L218.224 52.9003ZM201.948 29.4473L201.948 29.4473C201.041 28.5356 200.6 27.4689 200.6 26.1929C200.6 24.9184 201.042 23.8553 201.952 22.9486L201.952 22.9486C202.864 22.0409 203.931 21.6 205.207 21.6C206.481 21.6 207.544 22.042 208.451 22.9527L208.451 22.9527C209.359 23.8643 209.8 24.9311 209.8 26.2071C209.8 27.4816 209.358 28.5446 208.447 29.4513L208.447 29.4514C207.535 30.3591 206.469 30.8 205.193 30.8C203.918 30.8 202.855 30.358 201.948 29.4473ZM195.6 70C193.195 70 191.184 69.1699 189.507 67.4929C187.83 65.8159 187 63.8045 187 61.4L187 16.6C187 14.1955 187.83 12.1841 189.507 10.5071C191.184 8.83009 193.195 7.99998 195.6 7.99998L240.4 7.99998C242.804 7.99998 244.816 8.83009 246.493 10.5071C248.17 12.1841 249 14.1955 249 16.6L249 61.4C249 63.8045 248.17 65.8159 246.493 67.4929C244.816 69.1699 242.804 70 240.4 70L195.6 70ZM195.6 67.2L240.4 67.2C242.012 67.2 243.41 66.6439 244.527 65.5271C245.644 64.4103 246.2 63.0118 246.2 61.4L246.2 16.6C246.2 14.9882 245.644 13.5897 244.527 12.4729C243.41 11.3561 242.012 10.8 240.4 10.8L195.6 10.8C193.988 10.8 192.589 11.3561 191.473 12.4729C190.356 13.5897 189.8 14.9882 189.8 16.6L189.8 61.4C189.8 63.0118 190.356 64.4103 191.473 65.5271C192.589 66.6439 193.988 67.2 195.6 67.2Z" stroke="white" stroke-width="2"/>
</svg>
